<?xml version="1.0" standalone="no"?><!DOCTYPE svg PUBLIC "-//W3C//DTD SVG 1.1//EN" "http://www.w3.org/Graphics/SVG/1.1/DTD/svg11.dtd"><svg t="1524044995814" class="icon" style="" viewBox="0 0 1024 1024" version="1.1" xmlns="http://www.w3.org/2000/svg" p-id="4973" xmlns:xlink="http://www.w3.org/1999/xlink" width="200" height="200"><defs><style type="text/css"></style></defs><path d="M860.032 976.704H162.688c-39.104 0-81.152-20.032-115.264-54.912C18.176 891.648 0 844.48 0 798.336V298.176c0-42.944 16-81.088 47.488-113.344 28.672-29.376 68.48-44.864 115.264-44.864h26.624c7.872 0 19.776-7.488 24.192-10.304 5.696-3.648 11.968-11.968 17.28-22.72l31.232-62.656c8.512-17.344 21.952-27.584 34.048-35.264 16-10.112 30.336-9.216 42.624-8.704l6.528 0.128 344.768-0.128c10.176 0 23.552 1.024 36.416 9.216l2.368 1.472c11.648 7.36 23.744 14.976 31.808 31.616l31.296 65.024c4.608 9.536 10.88 17.344 17.152 21.312 6.208 3.904 17.408 11.072 24.256 11.072h26.624c46.656 0 86.656 15.488 115.392 44.864 31.36 32.256 47.36 70.4 47.36 113.344v500.16c0 46.272-18.24 93.312-47.36 123.52-34.24 34.688-76.16 54.784-115.328 54.784zM162.688 186.496c-34.432 0-62.016 10.368-81.984 30.784-23.04 23.68-34.24 50.112-34.24 80.896v500.16c0 33.92 13.44 69.696 34.24 90.816 25.344 26.176 55.296 41.152 81.984 41.152h697.344c26.624 0 56.512-14.848 81.856-41.152 20.736-21.12 34.24-56.896 34.24-90.816V298.176c0-30.784-11.2-57.28-34.24-80.896-20.032-20.416-47.488-30.784-81.856-30.784h-26.752c-18.624 0-35.008-9.408-49.152-18.304a98.112 98.112 0 0 1-33.984-40.256L718.912 62.912c-2.176-4.352-5.504-6.656-14.784-12.48l-2.432-1.6c-2.304-1.472-5.568-2.048-11.648-2.048l-12.544 0.256h-332.16L337.216 46.912 330.624 46.656c-6.08 0-8.192 0.768-9.6 1.664-9.856 6.208-14.336 10.624-17.216 16.576l-31.296 62.592c-6.336 12.992-17.472 30.848-34.048 41.344-13.76 8.704-30.336 17.664-49.152 17.664h-26.624z" fill="#8a8a8a" p-id="4974"></path><path d="M511.36 814.08a279.296 279.296 0 0 1-278.912-278.912A279.168 279.168 0 0 1 511.36 256.32a279.168 279.168 0 0 1 278.848 278.848A279.232 279.232 0 0 1 511.36 814.08z m0-511.36a232.64 232.64 0 0 0-232.384 232.384 232.704 232.704 0 0 0 232.384 232.512 232.768 232.768 0 0 0 232.384-232.512A232.64 232.64 0 0 0 511.36 302.72zM813.504 325.952l0 0z m0-46.528v23.232-23.232zM813.504 325.952l0 0z m0-46.528v23.232-23.232z" fill="#8a8a8a" p-id="4975"></path></svg>